<svg xmlns="http://www.w3.org/2000/svg" viewBox="0 0 48 48" xmlns:xlink="http://www.w3.org/1999/xlink" xml:space="preserve" width="100%" height="100%"><path xmlns="http://www.w3.org/2000/svg" d="M42.667 10.667h-16l-5.334-5.334h-16A2.675 2.675 0 0 0 2.667 8v32c0 1.467 1.2 2.667 2.666 2.667h37.334c1.466 0 2.666-1.2 2.666-2.667V13.333c0-1.466-1.2-2.666-2.666-2.666m-12 7.333c2.586 0 4.666 2.08 4.666 4.667s-2.08 4.666-4.666 4.666S26 25.253 26 22.667 28.08 18 30.667 18M40 37.333H21.333V34c0-3.12 6.214-4.667 9.334-4.667S40 30.88 40 34z"></path></svg>